<?xml version="1.0"?>
 <svg width="760" height="428" viewBox="0 0 760 428" version="1.1" xmlns="http://www.w3.org/2000/svg"> <g id="#77b900ff"> <path fill="#77b900" opacity="1.00" d=" M 0.00 0.00 L 760.00 0.00 L 760.00 428.00 L 0.00 428.00 L 0.00 0.00 M 213.61 184.30 C 197.04 186.03 182.11 195.00 169.93 205.96 C 177.06 224.18 193.22 240.49 213.55 241.92 C 213.63 244.94 213.60 247.96 213.59 250.98 C 238.12 251.00 262.65 251.06 287.18 250.95 C 286.95 225.31 286.91 199.65 287.20 174.02 C 262.67 173.99 238.14 173.94 213.62 174.05 C 213.60 177.47 213.60 180.88 213.61 184.30 Z"></path> <path fill="#77b900" opacity="1.00" d=" M 213.69 184.35 C 231.51 183.05 248.45 192.68 259.67 205.99 C 247.92 218.64 232.23 232.21 213.70 229.56 C 213.69 227.81 213.67 226.07 213.63 224.32 C 227.74 227.78 239.51 216.31 247.51 206.19 C 239.36 196.16 226.88 188.89 213.63 189.85 C 213.66 188.01 213.68 186.18 213.69 184.35 Z"></path> <path fill="#77b900" opacity="1.00" d=" M 181.97 207.18 C 189.49 197.33 201.28 191.02 213.61 190.02 C 213.61 192.32 213.59 194.61 213.54 196.91 C 204.99 197.95 196.91 201.93 190.73 207.91 C 194.05 218.40 202.44 227.70 213.61 229.66 C 213.62 231.74 213.63 233.81 213.64 235.89 C 198.24 234.26 186.97 221.01 181.97 207.18 Z"></path> <path fill="#77b900" opacity="1.00" d=" M 213.67 196.91 C 222.45 195.82 231.29 199.53 237.04 206.16 C 233.71 208.98 230.34 211.75 227.09 214.64 C 224.33 209.30 220.49 203.04 213.68 203.01 C 213.67 200.97 213.67 198.94 213.67 196.91 Z"></path> <path fill="#77b900" opacity="1.00" d=" M 200.37 208.67 C 204.09 205.54 208.45 202.56 213.56 202.89 C 213.63 209.97 213.64 217.04 213.59 224.12 C 206.92 221.57 202.24 215.41 200.37 208.67 Z"></path> <path fill="#77b900" opacity="1.00" d=" M 264.56 215.03 C 268.91 217.65 274.29 219.50 277.75 223.06 C 259.42 236.09 236.13 242.11 213.75 242.07 C 213.70 240.09 213.66 238.12 213.61 236.14 C 232.99 238.14 250.87 227.78 264.56 215.03 Z"></path> </g> <g id="#fefefdff"> <path fill="#fefefd" opacity="1.00" d=" M 213.61 184.30 C 213.60 180.88 213.60 177.47 213.62 174.05 C 238.14 173.94 262.67 173.99 287.20 174.02 C 286.91 199.65 286.95 225.31 287.18 250.95 C 262.65 251.06 238.12 251.00 213.59 250.98 C 213.60 247.96 213.63 244.94 213.55 241.92 C 193.22 240.49 177.06 224.18 169.93 205.96 C 182.11 195.00 197.04 186.03 213.61 184.30 M 213.69 184.35 C 213.68 186.18 213.66 188.01 213.63 189.85 C 226.88 188.89 239.36 196.16 247.51 206.19 C 239.51 216.31 227.74 227.78 213.63 224.32 C 213.67 226.07 213.69 227.81 213.70 229.56 C 232.23 232.21 247.92 218.64 259.67 205.99 C 248.45 192.68 231.51 183.05 213.69 184.35 M 181.97 207.18 C 186.97 221.01 198.24 234.26 213.64 235.89 C 213.63 233.81 213.62 231.74 213.61 229.66 C 202.44 227.70 194.05 218.40 190.73 207.91 C 196.91 201.93 204.99 197.95 213.54 196.91 C 213.59 194.61 213.61 192.32 213.61 190.02 C 201.28 191.02 189.49 197.33 181.97 207.18 M 213.67 196.91 C 213.67 198.94 213.67 200.97 213.68 203.01 C 220.49 203.04 224.33 209.30 227.09 214.64 C 230.34 211.75 233.71 208.98 237.04 206.16 C 231.29 199.53 222.45 195.82 213.67 196.91 M 200.37 208.67 C 202.24 215.41 206.92 221.57 213.59 224.12 C 213.64 217.04 213.63 209.97 213.56 202.89 C 208.45 202.56 204.09 205.54 200.37 208.67 M 264.56 215.03 C 250.87 227.78 232.99 238.14 213.61 236.14 C 213.66 238.12 213.70 240.09 213.75 242.07 C 236.13 242.11 259.42 236.09 277.75 223.06 C 274.29 219.50 268.91 217.65 264.56 215.03 Z"></path> </g> </svg> 